<svg aria-hidden="true" style="position: absolute; width: 0; height: 0; overflow: hidden;" version="1.1" xmlns="http://www.w3.org/2000/svg" xmlns:xlink="http://www.w3.org/1999/xlink">
<defs>
<symbol id="icon-moon" viewBox="0 0 32 32">
<path fill="#3e85f3" style="fill: var(--color1, #3e85f3)" d="M27.656 17.393c-0.903 0.24-1.834 0.362-2.77 0.362-2.846 0-5.52-1.107-7.527-3.115-1.923-1.934-3.112-4.6-3.112-7.544 0-0.979 0.131-1.927 0.378-2.828l-0.017 0.075c0.029-0.103 0.045-0.221 0.045-0.344 0-0.736-0.597-1.333-1.333-1.333-0.123 0-0.242 0.017-0.355 0.048l0.009-0.002c-2.353 0.64-4.373 1.837-5.985 3.443l0-0c-5.197 5.197-5.197 13.657 0 18.857 2.4 2.413 5.723 3.907 9.395 3.907 0.012 0 0.024-0 0.037-0h-0.002c0.011 0 0.024 0 0.037 0 3.67 0 6.991-1.493 9.389-3.905l0.001-0.001c1.607-1.612 2.804-3.634 3.422-5.894l0.022-0.094c0.028-0.102 0.044-0.22 0.044-0.341 0-0.737-0.598-1.335-1.335-1.335-0.121 0-0.239 0.016-0.351 0.047l0.009-0.002zM23.96 23.128c-1.92 1.93-4.577 3.124-7.513 3.124-0.010 0-0.019 0-0.029-0h0.002c-0.008 0-0.017 0-0.027 0-2.938 0-5.596-1.195-7.517-3.125l-0-0c-4.158-4.159-4.158-10.927 0-15.086 0.803-0.802 1.73-1.47 2.746-1.977-0.025 0.309-0.040 0.669-0.040 1.033 0 3.681 1.488 7.014 3.894 9.432l-0-0c2.406 2.408 5.731 3.897 9.404 3.897 0.373 0 0.742-0.015 1.108-0.045l-0.048 0.003c-0.538 1.056-1.198 1.961-1.979 2.745l0-0z"></path>
</symbol>
<symbol id="icon-pencil-01" viewBox="0 0 32 32">
<path stroke-linejoin="round" stroke-linecap="round" stroke-miterlimit="4" stroke-width="2.6" d="M3.334 28.666l7.4-2.846c0.472-0.18 0.708-0.272 0.93-0.392 0.196-0.104 0.384-0.226 0.56-0.364 0.2-0.154 0.378-0.332 0.736-0.69l15.040-15.040c0.703-0.686 1.138-1.642 1.138-2.7 0-2.083-1.689-3.772-3.772-3.772-1.058 0-2.014 0.436-2.699 1.137l-15.041 15.041c-0.243 0.23-0.468 0.47-0.679 0.723l-0.011 0.013c-0.138 0.176-0.26 0.364-0.364 0.56-0.12 0.22-0.21 0.46-0.392 0.932l-2.846 7.4zM3.334 28.666l2.744-7.134c0.196-0.51 0.294-0.766 0.462-0.882 0.106-0.075 0.238-0.12 0.381-0.12 0.044 0 0.087 0.004 0.129 0.012l-0.004-0.001c0.2 0.040 0.394 0.232 0.78 0.62l3.014 3.010c0.386 0.388 0.58 0.58 0.62 0.782 0.008 0.038 0.012 0.081 0.012 0.125 0 0.143-0.045 0.275-0.121 0.383l0.001-0.002c-0.118 0.168-0.374 0.266-0.884 0.462l-7.134 2.744z"></path>
</symbol>
<symbol id="icon-sun" viewBox="0 0 32 32">
<path fill="#3e85f3" style="fill: var(--color1, #3e85f3)" d="M9.324 16c0.004 3.685 2.991 6.672 6.676 6.676h0c3.685-0.004 6.672-2.991 6.676-6.676v-0c-0.004-3.685-2.991-6.672-6.676-6.676h-0c-3.685 0.004-6.672 2.991-6.676 6.676v0zM16 11.99c2.21 0 4.010 1.8 4.010 4.010s-1.8 4.010-4.010 4.010c-2.214-0.002-4.008-1.796-4.010-4.010v-0c0-2.21 1.8-4.010 4.010-4.010zM14.664 25.333h2.667v4h-2.667v-4zM14.664 2.667h2.667v4h-2.667v-4zM2.664 14.667h4v2.666h-4v-2.666zM25.331 14.667h4v2.666h-4v-2.666zM5.625 24.484l2.827-2.83 1.887 1.886-2.827 2.83-1.887-1.886zM21.653 8.459l2.83-2.83 1.885 1.886-2.83 2.829-1.885-1.885zM8.456 10.345l-2.83-2.829 1.887-1.885 2.827 2.829-1.884 1.885zM26.368 24.485l-1.885 1.886-2.83-2.83 1.886-1.885 2.83 2.83z"></path>
</symbol>
<symbol id="icon-trash-04" viewBox="0 0 32 32">
<path stroke-linejoin="round" stroke-linecap="round" stroke-miterlimit="4" stroke-width="2.6" d="M12 4h8M4 8h24M6.666 8l0.8 12.018c0.15 2.23 0.224 3.346 0.59 4.242 0.673 1.625 1.992 2.868 3.628 3.424l0.042 0.012c0.92 0.304 2.038 0.304 4.274 0.304v0c2.236 0 3.354 0 4.272-0.304 1.679-0.568 2.999-1.81 3.657-3.396l0.015-0.040c0.364-0.896 0.44-2.012 0.588-4.242l0.8-12.018"></path>
</symbol>
<symbol id="icon-user-check" viewBox="0 0 32 32">
<path stroke-linejoin="round" fill="none" stroke-linecap="round" stroke-miterlimit="4" stroke-width="2.6667" d="M21.333 24l2.667 2.667 5.333-5.333M16 20.667h-6c-1.861 0-2.791 0-3.548 0.229-1.708 0.529-3.026 1.848-3.546 3.518l-0.010 0.038c-0.229 0.757-0.229 1.687-0.229 3.548v0M13.333 16c3.314 0 6-2.686 6-6s-2.686-6-6-6v0c-3.314 0-6 2.686-6 6s2.686 6 6 6v0z"></path>
</symbol>
<symbol id="icon-arrow-circle-broken-right" viewBox="0 0 32 32">
<path stroke-linejoin="round" stroke-linecap="round" stroke-miterlimit="4" stroke-width="2.6" d="M4.45 9.334c2.348-4.014 6.638-6.667 11.548-6.667 7.364 0 13.334 5.97 13.334 13.334s-5.97 13.334-13.334 13.334c-4.909 0-9.199-2.653-11.514-6.604l-0.034-0.063"></path>
<path stroke-linejoin="round" stroke-linecap="round" stroke-miterlimit="4" stroke-width="2.6" d="M16 21.334l5.334-5.334-5.334-5.334M2.666 16h18.668"></path>
</symbol>
<symbol id="icon-calendar-check" viewBox="0 0 29 32">
<path stroke-linejoin="round" fill="none" stroke-linecap="round" stroke-miterlimit="4" stroke-width="2.9091" d="M27.636 13.091h-26.182M27.636 16.727v-5.382c0-2.444 0-3.665-0.476-4.599-0.426-0.825-1.082-1.481-1.883-1.895l-0.024-0.011c-0.934-0.476-2.156-0.476-4.599-0.476h-12.218c-2.444 0-3.665 0-4.599 0.476-0.825 0.426-1.481 1.082-1.895 1.883l-0.011 0.024c-0.476 0.934-0.476 2.156-0.476 4.599v12.218c0 2.444 0 3.665 0.476 4.599 0.426 0.825 1.082 1.48 1.883 1.895l0.024 0.011c0.934 0.476 2.156 0.476 4.599 0.476h6.109M20.364 1.455v5.818M8.727 1.455v5.818M18.182 26.182l2.909 2.909 6.545-6.545"></path>
</symbol>
<symbol id="icon-icon" viewBox="0 0 32 32">
<path stroke-linejoin="round" stroke-linecap="round" stroke-miterlimit="4" stroke-width="2.6667" d="M16 10.667v10.667M10.667 16h10.667M29.333 16c0 7.364-5.969 13.333-13.333 13.333s-13.333-5.969-13.333-13.333 5.969-13.333 13.333-13.333 13.333 5.969 13.333 13.333z"></path>
</symbol>
<symbol id="icon-chart" viewBox="0 0 32 32">
<path d="M23.8 9.037c0-0.76 0-1.305 0.037-1.733 0.037-0.435 0.104-0.595 0.133-0.647 0.009-0.013 0.013-0.016 0.016-0.019 0.040-0.026 0.086-0.046 0.135-0.059l0.003-0.001c0.208-0.064 0.569-0.112 1.208-0.112s1 0.048 1.208 0.112c0.093 0.028 0.129 0.053 0.137 0.059 0.005 0.004 0.008 0.007 0.016 0.020 0.031 0.052 0.097 0.212 0.133 0.648 0.037 0.427 0.039 0.973 0.039 1.732v13.925c0 0.896-0.051 1.504-0.135 1.916-0.084 0.413-0.183 0.531-0.2 0.547-0.007 0.008-0.016 0.015-0.026 0.020l-0 0c-0.049 0.021-0.107 0.038-0.167 0.046l-0.004 0c-0.22 0.037-0.509 0.041-1.001 0.041-0.499 0-0.792-0.004-1.015-0.041-0.063-0.009-0.119-0.024-0.172-0.047l0.004 0.002c-0.009-0.004-0.017-0.010-0.024-0.017l-0-0c-0.015-0.015-0.112-0.131-0.195-0.547-0.083-0.413-0.132-1.021-0.132-1.92v-13.925zM25.333 4.2c-1.288 0-2.613 0.136-3.305 1.291-0.303 0.504-0.403 1.085-0.449 1.621-0.045 0.533-0.045 1.177-0.045 1.883v13.968c0 0.955 0.051 1.735 0.175 2.363 0.125 0.627 0.344 1.205 0.763 1.653 0.439 0.468 0.973 0.663 1.465 0.747 0.433 0.075 0.92 0.075 1.344 0.075h0.107c0.417 0 0.9 0 1.333-0.075 0.489-0.084 1.023-0.277 1.463-0.744 0.42-0.445 0.643-1.023 0.771-1.651 0.128-0.631 0.18-1.412 0.18-2.368v-13.968c0-0.707 0-1.348-0.045-1.883-0.047-0.536-0.147-1.117-0.449-1.621-0.693-1.155-2.017-1.291-3.305-1.291zM14.505 12.667c-0.024 0.266-0.037 0.575-0.037 0.887 0 0.079 0.001 0.157 0.003 0.236l-0-0.012v9.811c-0.033 1.147 0.175 1.533 0.299 1.667 0.107 0.115 0.377 0.279 1.231 0.279 0.835 0 1.112-0.163 1.227-0.283 0.125-0.135 0.339-0.523 0.303-1.659v-9.815c0-0.46-0.003-0.811-0.036-1.111-0.032-0.296-0.088-0.448-0.136-0.529l-0.003-0.003c-0.031-0.053-0.197-0.335-1.355-0.335-1.159 0-1.325 0.283-1.356 0.335l-0.001 0.003c-0.049 0.081-0.104 0.233-0.137 0.529zM12.697 10.973c0.64-1.067 1.82-1.44 3.303-1.44s2.663 0.373 3.301 1.44c0.284 0.475 0.395 0.989 0.445 1.444 0.049 0.437 0.049 0.907 0.049 1.328v9.792c0.040 1.301-0.16 2.463-0.921 3.268-0.777 0.824-1.869 0.995-2.875 0.995-1.016 0-2.113-0.169-2.887-1-0.755-0.807-0.945-1.969-0.909-3.26v-9.795c0-0.42 0-0.891 0.048-1.328 0.051-0.453 0.161-0.969 0.445-1.444zM5.169 19.36c-0.025 0.318-0.039 0.688-0.039 1.062 0 0.099 0.001 0.198 0.003 0.297l-0-0.015v3.688c0 0.64 0.155 0.816 0.229 0.88 0.123 0.104 0.453 0.261 1.304 0.261 0.832 0 1.167-0.156 1.296-0.264 0.080-0.068 0.237-0.248 0.237-0.877v-3.668l-0.009-0.269c-0.015-0.44-0.027-0.783-0.059-1.085-0.040-0.364-0.099-0.533-0.147-0.616v-0.001c-0.013-0.027-0.128-0.285-1.319-0.285-1.196 0-1.336 0.261-1.355 0.297l-0.001 0.003c-0.047 0.079-0.107 0.241-0.141 0.593zM3.356 17.617c0.653-1.111 1.877-1.417 3.311-1.417 1.436 0 2.648 0.307 3.288 1.431 0.277 0.484 0.379 1.020 0.431 1.495 0.043 0.395 0.057 0.841 0.072 1.28l0.008 0.259v0.013l0.001 0.027v3.688c0 0.991-0.256 1.949-1.047 2.613-0.744 0.624-1.741 0.795-2.753 0.795-1.021 0-2.024-0.169-2.767-0.797-0.791-0.669-1.033-1.631-1.033-2.611v-3.725c0-0.521 0-1.056 0.047-1.532 0.049-0.487 0.156-1.027 0.443-1.517z"></path>
</symbol>
<symbol id="icon-plus-white" xmlns="http://www.w3.org/2000/svg" width="18" height="18" fill="none"><path stroke="#fff" stroke-linecap="round" stroke-linejoin="round" stroke-width="2" d="M9 3.75v10.5M3.75 9h10.5"/></symbol>

<!-- <symbol id="icon-plus-black" xmlns="http://www.w3.org/2000/svg" width="24" height="24" ><path  stroke-linecap="round" stroke-linejoin="round" stroke-width="2" d="M12 5v14m-7-7h14"/></symbol>
<symbol id="icon-plus-circle" xmlns="http://www.w3.org/2000/svg" width="22" height="22" ><g clip-path="url(#a)"><path  stroke-linecap="round" stroke-linejoin="round" stroke-width="2" d="M11 7.333v7.334M7.333 11h7.333m5.5 0a9.167 9.167 0 1 1-18.333 0 9.167 9.167 0 0 1 18.333 0Z"/></g><defs><clipPath id="a"><path fill="#fff" d="M0 0h22v22H0z"/></clipPath></defs></symbol>
<symbol id="icon-x-close" xmlns="http://www.w3.org/2000/svg" width="24" height="24" fill="none"><path stroke="currentColor" stroke-linecap="round" stroke-linejoin="round" stroke-width="2" d="M18 6 6 18M6 6l12 12"/></symbol> -->


<symbol id="icon-plus-circle" xmlns="http://www.w3.org/2000/svg" width="22" height="22" ><g clip-path="url(#a)"><path  stroke-linecap="round" stroke-linejoin="round" stroke-width="2" d="M11 7.333v7.334M7.333 11h7.333m5.5 0a9.167 9.167 0 1 1-18.333 0 9.167 9.167 0 0 1 18.333 0Z"/></g><defs><clipPath id="a"><path fill="#fff" d="M0 0h22v22H0z"/></clipPath></defs></symbol>
<symbol id="icon-plus-black" xmlns="http://www.w3.org/2000/svg" width="24" height="24" fill="none"><path stroke="currentColor" stroke-linecap="round" stroke-linejoin="round" stroke-width="2" d="M12 5v14m-7-7h14"/></symbol>
<symbol id="icon-x-close" xmlns="http://www.w3.org/2000/svg" width="24" height="24" fill="none"><path stroke="currentColor" stroke-linecap="round" stroke-linejoin="round" stroke-width="2" d="M18 6 6 18M6 6l12 12"/></symbol>
<symbol id="icon-x-close-feedback" xmlns="http://www.w3.org/2000/svg" width="24" height="24" fill="none"><path stroke-linecap="round" stroke-linejoin="round" stroke-width="2" d="M18 6 6 18M6 6l12 12"/></symbol>


<symbol id="icon-pencil-white" width="19" height="18" viewBox="0 0 19 18" fill="none" xmlns="http://www.w3.org/2000/svg">
<path d="M2.375 16.125L6.53695 14.5242C6.80316 14.4218 6.93626 14.3707 7.06079 14.3038C7.1714 14.2444 7.27685 14.1759 7.37603 14.0989C7.48769 14.0123 7.58853 13.9115 7.79021 13.7098L16.25 5.24998C17.0784 4.42156 17.0784 3.07841 16.25 2.24998C15.4216 1.42156 14.0784 1.42156 13.25 2.24998L4.79021 10.7098C4.58853 10.9115 4.48769 11.0123 4.40104 11.124C4.32408 11.2231 4.25555 11.3286 4.19618 11.4392C4.12933 11.5637 4.07814 11.6968 3.97575 11.963L2.375 16.125ZM2.375 16.125L3.91859 12.1117C4.02905 11.8245 4.08428 11.6809 4.17901 11.6151C4.26179 11.5577 4.36423 11.5359 4.46322 11.5548C4.5765 11.5765 4.68529 11.6853 4.90286 11.9028L6.59718 13.5971C6.81475 13.8147 6.92354 13.9235 6.94517 14.0368C6.96408 14.1358 6.94234 14.2382 6.88486 14.321C6.81909 14.4157 6.67549 14.471 6.3883 14.5814L2.375 16.125Z" stroke="white" stroke-width="1.3" stroke-linecap="round" stroke-linejoin="round"/>
</symbol>
<symbol id="icon-plus-circle" fill="none" width="24" height="24" viewBox="0 0 24 24" xmlns="http://www.w3.org/2000/svg">
<path d="M12 8V16M8 12H16M22 12C22 17.5228 17.5228 22 12 22C6.47715 22 2 17.5228 2 12C2 6.47715 6.47715 2 12 2C17.5228 2 22 6.47715 22 12Z" stroke="currentColor" stroke-width="2" stroke-linecap="round" stroke-linejoin="round"/>
</symbol>
<symbol id="icon-chevron-right" viewBox="0 0 16 32">
<path fill="none"  stroke-linejoin="round" stroke-linecap="round" stroke-miterlimit="4" stroke-width="4" d="M14 4l-12 12 12 12"></path>
</symbol>
<symbol id="icon-log-out" viewBox="0 0 32 32">
<path fill="none" stroke="#fff" style="stroke: var(--color1, #fff)" stroke-linejoin="round" stroke-linecap="round" stroke-miterlimit="4" stroke-width="3.2" d="M21.333 22.667l6.667-6.667M28 16l-6.667-6.667M28 16h-16M12 4h-1.6c-2.24 0-3.36 0-4.216 0.435-0.756 0.391-1.358 0.992-1.738 1.727l-0.011 0.022c-0.435 0.856-0.435 1.976-0.435 4.216v11.2c0 2.24 0 3.36 0.435 4.216 0.391 0.756 0.992 1.357 1.726 1.737l0.022 0.011c0.856 0.437 1.976 0.437 4.216 0.437h1.6"></path>
</symbol>
<symbol id="icon-Ellipse-4-1" viewBox="0 0 32 32">
<path fill="#3e85f3" style="fill: var(--color1, #3e85f3)" d="M32 16c0 8.837-7.163 16-16 16s-16-7.163-16-16c0-8.837 7.163-16 16-16s16 7.163 16 16z"></path>
</symbol>
<symbol id="icon-Ellipse-3-1" viewBox="0 0 32 32">
<path fill="#ffd2dd" style="fill: var(--color2, #ffd2dd)" d="M32 16c0 8.837-7.163 16-16 16s-16-7.163-16-16c0-8.837 7.163-16 16-16s16 7.163 16 16z"></path>
</symbol>
<symbol id="icon-trash" width="14" height="14" viewBox="0 0 14 14" xmlns="http://www.w3.org/2000/svg">
<path d="M5.25 1.75H8.75"  stroke-width="1.2" stroke-linecap="round" stroke-linejoin="round"/>
<path d="M1.75 3.5H12.25"  stroke-width="1.2" stroke-linecap="round" stroke-linejoin="round"/>
<path d="M2.91699 3.5L3.26751 8.75775C3.31065 9.40488 3.33222 9.72844 3.40201 9.99909C3.69263 11.1261 4.60892 11.9834 5.75279 12.1984C6.02748 12.25 6.35176 12.25 7.00033 12.25V12.25C7.64889 12.25 7.97317 12.25 8.24786 12.1984C9.39174 11.9834 10.308 11.1261 10.5986 9.99909C10.6684 9.72844 10.69 9.40488 10.7331 8.75775L11.0837 3.5"  stroke-width="1.2" stroke-linecap="round" stroke-linejoin="round"/>
</symbol>
<symbol id="icon-pencil-grey" width="14" height="14" viewBox="0 0 14 14"  xmlns="http://www.w3.org/2000/svg">
<g clip-path="url(#clip0_124_1583)">
<path d="M1.45801 12.5417L4.69508 11.2966C4.90213 11.217 5.00565 11.1772 5.10251 11.1252C5.18854 11.079 5.27056 11.0257 5.3477 10.9659C5.43455 10.8985 5.51298 10.82 5.66984 10.6632L12.2497 4.08334C12.894 3.43901 12.894 2.39434 12.2497 1.75C11.6054 1.10567 10.5607 1.10567 9.91636 1.75L3.33651 8.32984C3.17964 8.4867 3.10121 8.56513 3.03382 8.65198C2.97396 8.72912 2.92066 8.81114 2.87448 8.89717C2.82249 8.99403 2.78267 9.09755 2.70304 9.3046L1.45801 12.5417ZM1.45801 12.5417L2.65858 9.42023C2.74449 9.19686 2.78744 9.08518 2.86112 9.03402C2.92551 8.98931 3.00518 8.9724 3.08218 8.98711C3.17029 9.00393 3.2549 9.08855 3.42412 9.25777L4.74193 10.5756C4.91115 10.7448 4.99576 10.8294 5.01259 10.9175C5.02729 10.9945 5.01038 11.0742 4.96568 11.1386C4.91452 11.2122 4.80283 11.2552 4.57947 11.3411L1.45801 12.5417Z"  stroke-width="1.2" stroke-linecap="round" stroke-linejoin="round"/>

</g>
<defs>
<clipPath id="clip0_124_1583">
<rect width="14" height="14" fill="white"/>
</clipPath>
</defs>
</symbol >
<symbol id="icon-arrow" width="14" height="14" viewBox="0 0 14 14" xmlns="http://www.w3.org/2000/svg">
<g clip-path="url(#clip0_124_1620)">

<path d="M1.94727 4.08332C2.95588 2.33974 4.84105 1.16666 7.0002 1.16666C10.2219 1.16666 12.8335 3.77833 12.8335 6.99999C12.8335 10.2217 10.2219 12.8333 7.0002 12.8333C4.84105 12.8333 2.95588 11.6602 1.94727 9.91666"  stroke-width="1.2" stroke-linecap="round" stroke-linejoin="round"/>
<path d="M7 9.33332L9.33333 6.99999L7 4.66666"  stroke-width="1.2" stroke-linecap="round" stroke-linejoin="round"/>
<path d="M1.16699 7L9.33366 7"  stroke-width="1.2" stroke-linecap="round" stroke-linejoin="round"/>

</g>
</symbol >
<symbol id="icon-menu" width="24" height="24" viewBox="0 0 24 24" fill="none" xmlns="http://www.w3.org/2000/svg">
<path d="M3 12H21"  stroke-width="2" stroke-linecap="round" stroke-linejoin="round"/>
<path d="M3 6H21"  stroke-width="2" stroke-linecap="round" stroke-linejoin="round"/>
<path d="M3 18H21"  stroke-width="2" stroke-linecap="round" stroke-linejoin="round"/>
</symbol>

</defs>
</svg>
