<svg aria-hidden="true" style="position: absolute; width: 0; height: 0; overflow: hidden;" version="1.1" xmlns="http://www.w3.org/2000/svg" xmlns:xlink="http://www.w3.org/1999/xlink">
<defs>
<symbol id="icon-moon" viewBox="0 0 32 32">
<path fill="#3e85f3" style="fill: var(--color1, #3e85f3)" d="M27.656 17.393c-0.903 0.24-1.834 0.362-2.77 0.362-2.846 0-5.52-1.107-7.527-3.115-1.923-1.934-3.112-4.6-3.112-7.544 0-0.979 0.131-1.927 0.378-2.828l-0.017 0.075c0.029-0.103 0.045-0.221 0.045-0.344 0-0.736-0.597-1.333-1.333-1.333-0.123 0-0.242 0.017-0.355 0.048l0.009-0.002c-2.353 0.64-4.373 1.837-5.985 3.443l0-0c-5.197 5.197-5.197 13.657 0 18.857 2.4 2.413 5.723 3.907 9.395 3.907 0.012 0 0.024-0 0.037-0h-0.002c0.011 0 0.024 0 0.037 0 3.67 0 6.991-1.493 9.389-3.905l0.001-0.001c1.607-1.612 2.804-3.634 3.422-5.894l0.022-0.094c0.028-0.102 0.044-0.22 0.044-0.341 0-0.737-0.598-1.335-1.335-1.335-0.121 0-0.239 0.016-0.351 0.047l0.009-0.002zM23.96 23.128c-1.92 1.93-4.577 3.124-7.513 3.124-0.010 0-0.019 0-0.029-0h0.002c-0.008 0-0.017 0-0.027 0-2.938 0-5.596-1.195-7.517-3.125l-0-0c-4.158-4.159-4.158-10.927 0-15.086 0.803-0.802 1.73-1.47 2.746-1.977-0.025 0.309-0.040 0.669-0.040 1.033 0 3.681 1.488 7.014 3.894 9.432l-0-0c2.406 2.408 5.731 3.897 9.404 3.897 0.373 0 0.742-0.015 1.108-0.045l-0.048 0.003c-0.538 1.056-1.198 1.961-1.979 2.745l0-0z"></path>
</symbol>
<symbol id="icon-pencil-01" viewBox="0 0 32 32">
<path stroke-linejoin="round" stroke-linecap="round" stroke-miterlimit="4" stroke-width="2.6" d="M3.334 28.666l7.4-2.846c0.472-0.18 0.708-0.272 0.93-0.392 0.196-0.104 0.384-0.226 0.56-0.364 0.2-0.154 0.378-0.332 0.736-0.69l15.040-15.040c0.703-0.686 1.138-1.642 1.138-2.7 0-2.083-1.689-3.772-3.772-3.772-1.058 0-2.014 0.436-2.699 1.137l-15.041 15.041c-0.243 0.23-0.468 0.47-0.679 0.723l-0.011 0.013c-0.138 0.176-0.26 0.364-0.364 0.56-0.12 0.22-0.21 0.46-0.392 0.932l-2.846 7.4zM3.334 28.666l2.744-7.134c0.196-0.51 0.294-0.766 0.462-0.882 0.106-0.075 0.238-0.12 0.381-0.12 0.044 0 0.087 0.004 0.129 0.012l-0.004-0.001c0.2 0.040 0.394 0.232 0.78 0.62l3.014 3.010c0.386 0.388 0.58 0.58 0.62 0.782 0.008 0.038 0.012 0.081 0.012 0.125 0 0.143-0.045 0.275-0.121 0.383l0.001-0.002c-0.118 0.168-0.374 0.266-0.884 0.462l-7.134 2.744z"></path>
</symbol>
<symbol id="icon-sun" viewBox="0 0 32 32">
<path fill="#3e85f3" style="fill: var(--color1, #3e85f3)" d="M9.324 16c0.004 3.685 2.991 6.672 6.676 6.676h0c3.685-0.004 6.672-2.991 6.676-6.676v-0c-0.004-3.685-2.991-6.672-6.676-6.676h-0c-3.685 0.004-6.672 2.991-6.676 6.676v0zM16 11.99c2.21 0 4.010 1.8 4.010 4.010s-1.8 4.010-4.010 4.010c-2.214-0.002-4.008-1.796-4.010-4.010v-0c0-2.21 1.8-4.010 4.010-4.010zM14.664 25.333h2.667v4h-2.667v-4zM14.664 2.667h2.667v4h-2.667v-4zM2.664 14.667h4v2.666h-4v-2.666zM25.331 14.667h4v2.666h-4v-2.666zM5.625 24.484l2.827-2.83 1.887 1.886-2.827 2.83-1.887-1.886zM21.653 8.459l2.83-2.83 1.885 1.886-2.83 2.829-1.885-1.885zM8.456 10.345l-2.83-2.829 1.887-1.885 2.827 2.829-1.884 1.885zM26.368 24.485l-1.885 1.886-2.83-2.83 1.886-1.885 2.83 2.83z"></path>
</symbol>
<symbol id="icon-trash-04" viewBox="0 0 32 32">
<path stroke-linejoin="round" stroke-linecap="round" stroke-miterlimit="4" stroke-width="2.6" d="M12 4h8M4 8h24M6.666 8l0.8 12.018c0.15 2.23 0.224 3.346 0.59 4.242 0.673 1.625 1.992 2.868 3.628 3.424l0.042 0.012c0.92 0.304 2.038 0.304 4.274 0.304v0c2.236 0 3.354 0 4.272-0.304 1.679-0.568 2.999-1.81 3.657-3.396l0.015-0.040c0.364-0.896 0.44-2.012 0.588-4.242l0.8-12.018"></path>
</symbol>
<symbol id="icon-user-check" viewBox="0 0 32 32">
<path fill="none" stroke="#84828a" style="stroke: var(--color2, #84828a)" stroke-linejoin="round" stroke-linecap="round" stroke-miterlimit="4" stroke-width="2.6667" d="M21.333 24l2.667 2.667 5.333-5.333M16 20.667h-6c-1.861 0-2.791 0-3.548 0.229-1.708 0.529-3.026 1.848-3.546 3.518l-0.010 0.038c-0.229 0.757-0.229 1.687-0.229 3.548v0M13.333 16c3.314 0 6-2.686 6-6s-2.686-6-6-6v0c-3.314 0-6 2.686-6 6s2.686 6 6 6v0z"></path>
</symbol>
<symbol id="icon-arrow-circle-broken-right" viewBox="0 0 32 32">
<path stroke-linejoin="round" stroke-linecap="round" stroke-miterlimit="4" stroke-width="2.6" d="M4.45 9.334c2.348-4.014 6.638-6.667 11.548-6.667 7.364 0 13.334 5.97 13.334 13.334s-5.97 13.334-13.334 13.334c-4.909 0-9.199-2.653-11.514-6.604l-0.034-0.063"></path>
<path stroke-linejoin="round" stroke-linecap="round" stroke-miterlimit="4" stroke-width="2.6" d="M16 21.334l5.334-5.334-5.334-5.334M2.666 16h18.668"></path>
</symbol>
<symbol id="icon-calendar-check" viewBox="0 0 32 32">
<path fill="none" stroke="#84828a" stroke-linejoin="round" stroke-linecap="round" stroke-miterlimit="4" stroke-width="2.6667" d="M28 13.333h-24M28 16.667v-4.933c0-2.24 0-3.36-0.436-4.216-0.391-0.756-0.992-1.357-1.726-1.737l-0.022-0.011c-0.856-0.436-1.976-0.436-4.216-0.436h-11.2c-2.24 0-3.36 0-4.216 0.436-0.756 0.391-1.357 0.992-1.737 1.726l-0.011 0.022c-0.436 0.856-0.436 1.976-0.436 4.216v11.2c0 2.24 0 3.36 0.436 4.216 0.391 0.756 0.992 1.357 1.726 1.738l0.022 0.011c0.856 0.436 1.976 0.436 4.216 0.436h5.6M21.333 2.667v5.333M10.667 2.667v5.333M19.333 25.333l2.667 2.667 6-6"></path>
</symbol>
<symbol id="icon-icon" viewBox="0 0 32 32">
<path stroke-linejoin="round" stroke-linecap="round" stroke-miterlimit="4" stroke-width="2.6667" d="M16 10.667v10.667M10.667 16h10.667M29.333 16c0 7.364-5.969 13.333-13.333 13.333s-13.333-5.969-13.333-13.333 5.969-13.333 13.333-13.333 13.333 5.969 13.333 13.333z"></path>
</symbol>
<symbol id="icon-chart" viewBox="0 0 32 32">
<path d="M23.8 9.037c0-0.76 0-1.305 0.037-1.733 0.037-0.435 0.104-0.595 0.133-0.647 0.009-0.013 0.013-0.016 0.016-0.019 0.040-0.026 0.086-0.046 0.135-0.059l0.003-0.001c0.208-0.064 0.569-0.112 1.208-0.112s1 0.048 1.208 0.112c0.093 0.028 0.129 0.053 0.137 0.059 0.005 0.004 0.008 0.007 0.016 0.020 0.031 0.052 0.097 0.212 0.133 0.648 0.037 0.427 0.039 0.973 0.039 1.732v13.925c0 0.896-0.051 1.504-0.135 1.916-0.084 0.413-0.183 0.531-0.2 0.547-0.007 0.008-0.016 0.015-0.026 0.020l-0 0c-0.049 0.021-0.107 0.038-0.167 0.046l-0.004 0c-0.22 0.037-0.509 0.041-1.001 0.041-0.499 0-0.792-0.004-1.015-0.041-0.063-0.009-0.119-0.024-0.172-0.047l0.004 0.002c-0.009-0.004-0.017-0.010-0.024-0.017l-0-0c-0.015-0.015-0.112-0.131-0.195-0.547-0.083-0.413-0.132-1.021-0.132-1.92v-13.925zM25.333 4.2c-1.288 0-2.613 0.136-3.305 1.291-0.303 0.504-0.403 1.085-0.449 1.621-0.045 0.533-0.045 1.177-0.045 1.883v13.968c0 0.955 0.051 1.735 0.175 2.363 0.125 0.627 0.344 1.205 0.763 1.653 0.439 0.468 0.973 0.663 1.465 0.747 0.433 0.075 0.92 0.075 1.344 0.075h0.107c0.417 0 0.9 0 1.333-0.075 0.489-0.084 1.023-0.277 1.463-0.744 0.42-0.445 0.643-1.023 0.771-1.651 0.128-0.631 0.18-1.412 0.18-2.368v-13.968c0-0.707 0-1.348-0.045-1.883-0.047-0.536-0.147-1.117-0.449-1.621-0.693-1.155-2.017-1.291-3.305-1.291zM14.505 12.667c-0.024 0.266-0.037 0.575-0.037 0.887 0 0.079 0.001 0.157 0.003 0.236l-0-0.012v9.811c-0.033 1.147 0.175 1.533 0.299 1.667 0.107 0.115 0.377 0.279 1.231 0.279 0.835 0 1.112-0.163 1.227-0.283 0.125-0.135 0.339-0.523 0.303-1.659v-9.815c0-0.46-0.003-0.811-0.036-1.111-0.032-0.296-0.088-0.448-0.136-0.529l-0.003-0.003c-0.031-0.053-0.197-0.335-1.355-0.335-1.159 0-1.325 0.283-1.356 0.335l-0.001 0.003c-0.049 0.081-0.104 0.233-0.137 0.529zM12.697 10.973c0.64-1.067 1.82-1.44 3.303-1.44s2.663 0.373 3.301 1.44c0.284 0.475 0.395 0.989 0.445 1.444 0.049 0.437 0.049 0.907 0.049 1.328v9.792c0.040 1.301-0.16 2.463-0.921 3.268-0.777 0.824-1.869 0.995-2.875 0.995-1.016 0-2.113-0.169-2.887-1-0.755-0.807-0.945-1.969-0.909-3.26v-9.795c0-0.42 0-0.891 0.048-1.328 0.051-0.453 0.161-0.969 0.445-1.444zM5.169 19.36c-0.025 0.318-0.039 0.688-0.039 1.062 0 0.099 0.001 0.198 0.003 0.297l-0-0.015v3.688c0 0.64 0.155 0.816 0.229 0.88 0.123 0.104 0.453 0.261 1.304 0.261 0.832 0 1.167-0.156 1.296-0.264 0.080-0.068 0.237-0.248 0.237-0.877v-3.668l-0.009-0.269c-0.015-0.44-0.027-0.783-0.059-1.085-0.040-0.364-0.099-0.533-0.147-0.616v-0.001c-0.013-0.027-0.128-0.285-1.319-0.285-1.196 0-1.336 0.261-1.355 0.297l-0.001 0.003c-0.047 0.079-0.107 0.241-0.141 0.593zM3.356 17.617c0.653-1.111 1.877-1.417 3.311-1.417 1.436 0 2.648 0.307 3.288 1.431 0.277 0.484 0.379 1.020 0.431 1.495 0.043 0.395 0.057 0.841 0.072 1.28l0.008 0.259v0.013l0.001 0.027v3.688c0 0.991-0.256 1.949-1.047 2.613-0.744 0.624-1.741 0.795-2.753 0.795-1.021 0-2.024-0.169-2.767-0.797-0.791-0.669-1.033-1.631-1.033-2.611v-3.725c0-0.521 0-1.056 0.047-1.532 0.049-0.487 0.156-1.027 0.443-1.517z"></path>
</symbol>
<symbol id="icon-GooseTrack" viewBox="0 0 160 32">
<path
d="M20.256 28v-11.424h-8.864v3.552h4.704c0 2.656-2.272 4.864-5.184 4.864-4.128 0-5.888-3.968-5.888-7.456 0-5.056 2.368-7.808 5.92-7.808 2.432 0 4.576 1.6 4.8 3.584h4.48c-0.32-4.256-4.224-7.264-9.28-7.264-6.88 0-10.464 5.024-10.464 11.296 0 5.92 3.744 11.392 9.632 11.392 2.912 0 5.344-1.056 6.368-2.848l0.096 2.112h3.68zM30.183 24.928c-2.080 0-3.104-0.8-3.104-3.52 0-3.712 1.536-6.048 4.8-6.048 2.048 0 3.104 0.64 3.104 3.488 0 3.712-1.568 6.080-4.8 6.080zM29.575 28.416c5.632 0 9.632-4.096 9.632-9.856 0-4.064-2.464-6.72-6.72-6.72-5.728 0-9.728 4.096-9.728 9.824 0 4 2.4 6.752 6.816 6.752zM47.433 24.928c-2.080 0-3.104-0.8-3.104-3.52 0-3.712 1.536-6.048 4.8-6.048 2.048 0 3.104 0.64 3.104 3.488 0 3.712-1.568 6.080-4.8 6.080zM46.825 28.416c5.632 0 9.632-4.096 9.632-9.856 0-4.064-2.464-6.72-6.72-6.72-5.728 0-9.728 4.096-9.728 9.824 0 4 2.4 6.752 6.816 6.752zM69.867 17.024c-0.224-3.392-2.272-5.184-6.816-5.184-4.8 0-6.624 2.016-6.624 4.672 0 1.408 0.512 2.624 1.984 3.552 1.12 0.704 2.592 1.152 5.248 1.792 1.344 0.32 2.528 0.672 2.528 1.792 0 1.184-1.312 1.632-2.784 1.632-2.016 0-3.264-0.864-3.264-2.336h-4.288c0.064 3.2 2.752 5.472 7.584 5.472 4.48 0 6.88-1.952 6.88-5.216 0-2.048-0.928-3.136-2.592-3.808-1.216-0.48-2.912-0.832-4.704-1.344-1.696-0.48-2.56-0.864-2.56-1.792s0.896-1.312 2.464-1.312c1.888 0 2.72 0.544 2.944 2.080h4zM75.424 18.592c0.16-2.176 1.536-3.456 3.2-3.456 1.632 0 3.168 1.12 3.232 3.456h-6.432zM86.144 21.216c0-6.24-2.56-9.376-7.392-9.376s-7.616 3.136-7.616 8c0 5.696 2.624 8.576 7.872 8.576 3.36 0 5.952-1.824 6.912-5.056h-4.288c-0.288 1.088-1.472 1.76-2.816 1.76-2.048 0-3.392-1.536-3.52-3.904h10.848zM97.726 28v-17.536h6.432v-3.712h-17.28v3.712h6.4v17.536h4.448zM107.805 28v-8.192c0-2.528 1.248-3.808 3.808-3.808 0.384 0 0.768 0.032 1.152 0.096v-4.256h-0.544c-1.696 0-3.296 0.192-4.672 2.304v-1.888h-3.904v15.744h4.16zM122.681 22.016c-0.032 1.856-1.632 3.424-3.776 3.424-1.312 0-2.016-0.576-2.016-1.76 0-1.344 0.768-2.016 3.136-2.464 1.536-0.288 2.272-0.512 2.688-0.928l-0.032 1.728zM126.873 28v-9.952c0-3.968-1.728-6.208-6.72-6.208-5.056 0-6.848 2.272-6.912 5.536h3.872c0.192-1.408 0.96-2.336 2.848-2.336 1.632 0 2.656 0.608 2.656 1.632 0 1.088-0.576 1.504-2.656 1.792-4.192 0.576-7.232 1.088-7.232 5.632 0 2.56 1.664 4.32 5.248 4.32 2.112 0 3.776-0.736 4.768-1.824 0.032 0.48 0.128 1.024 0.256 1.408h3.872zM138.691 22.304c-0.16 1.696-1.44 2.624-3.072 2.624s-3.072-1.664-3.072-5.088c0-3.424 1.44-4.544 3.2-4.544 1.568 0 2.752 0.96 2.976 2.592h4.192c-0.256-3.712-3.040-6.048-7.136-6.048-4.416 0-7.36 2.464-7.36 8.096s2.944 8.48 7.232 8.48c3.808 0 6.784-2.464 7.232-6.112h-4.192zM158.449 28l-5.152-9.952 5.28-5.792h-5.088l-5.184 5.984v-11.744h-4.192v21.504h4.192v-4.992l2.016-2.080 3.456 7.072h4.672z">
</path>
</symbol>
<symbol id="calendar" viewBox="0 0 32 32">
<path fill="none" stroke="#3e85f3" style="stroke: var(--color1, #3e85f3)" stroke-linejoin="round" stroke-linecap="round" stroke-miterlimit="4" stroke-width="2.6667" d="M28 13.333h-24M28 16.667v-4.933c0-2.24 0-3.36-0.436-4.216-0.391-0.756-0.992-1.357-1.726-1.737l-0.022-0.011c-0.856-0.436-1.976-0.436-4.216-0.436h-11.2c-2.24 0-3.36 0-4.216 0.436-0.756 0.391-1.357 0.992-1.737 1.726l-0.011 0.022c-0.436 0.856-0.436 1.976-0.436 4.216v11.2c0 2.24 0 3.36 0.436 4.216 0.391 0.756 0.992 1.357 1.726 1.738l0.022 0.011c0.856 0.436 1.976 0.436 4.216 0.436h5.6M21.333 2.667v5.333M10.667 2.667v5.333M19.333 25.333l2.667 2.667 6-6"></path>
</symbol>
<symbol id="user" viewBox="0 0 32 32">
<path fill="none" stroke="#3e85f3" style="stroke: var(--color1, #3e85f3)" stroke-linejoin="round" stroke-linecap="round" stroke-miterlimit="4" stroke-width="2.6667" d="M21.333 24l2.667 2.667 5.333-5.333M16 20.667h-6c-1.861 0-2.791 0-3.548 0.229-1.708 0.529-3.026 1.848-3.546 3.518l-0.010 0.038c-0.229 0.757-0.229 1.687-0.229 3.548v0M13.333 16c3.314 0 6-2.686 6-6s-2.686-6-6-6v0c-3.314 0-6 2.686-6 6s2.686 6 6 6v0z"></path>
</symbol>
<symbol id="icon-log-out" viewBox="0 0 32 32">
<path fill="none" stroke="#fff" style="stroke: var(--color1, #fff)" stroke-linejoin="round" stroke-linecap="round" stroke-miterlimit="4" stroke-width="3.2" d="M21.333 22.667l6.667-6.667M28 16l-6.667-6.667M28 16h-16M12 4h-1.6c-2.24 0-3.36 0-4.216 0.435-0.756 0.391-1.358 0.992-1.738 1.727l-0.011 0.022c-0.435 0.856-0.435 1.976-0.435 4.216v11.2c0 2.24 0 3.36 0.435 4.216 0.391 0.756 0.992 1.357 1.726 1.737l0.022 0.011c0.856 0.437 1.976 0.437 4.216 0.437h1.6"></path>
</symbol>
<symbol id="icon-menu" viewBox="0 0 32 32">
<path stroke-linejoin="round" stroke-linecap="round" stroke-miterlimit="4" stroke-width="2.3529" d="M4 16h24M4 8h24M4 24h24"></path>
</symbol>
<symbol id="icon-ph-user"  viewBox="0 0 32 32">
<path fill="#3e85f3" style="fill: var(--color1, #3e85f3)" opacity="0.18" d="M28.865 26.5c-1.904-3.291-4.837-5.651-8.261-6.77 1.694-1.008 3.009-2.544 3.745-4.373s0.851-3.848 0.329-5.748c-0.523-1.9-1.655-3.576-3.223-4.771s-3.484-1.842-5.455-1.842-3.887 0.647-5.455 1.842c-1.568 1.195-2.7 2.871-3.223 4.771s-0.407 3.92 0.329 5.748c0.736 1.828 2.052 3.365 3.745 4.373-3.424 1.117-6.357 3.477-8.261 6.77-0.070 0.114-0.116 0.24-0.136 0.373s-0.014 0.267 0.019 0.396 0.091 0.251 0.172 0.357c0.081 0.107 0.182 0.196 0.297 0.263s0.243 0.11 0.376 0.126c0.132 0.017 0.267 0.006 0.396-0.030s0.248-0.098 0.353-0.181 0.191-0.187 0.255-0.304c2.355-4.070 6.517-6.5 11.134-6.5s8.779 2.43 11.134 6.5c0.064 0.117 0.15 0.221 0.255 0.304s0.224 0.145 0.353 0.181c0.128 0.036 0.263 0.046 0.395 0.030s0.26-0.060 0.376-0.126c0.116-0.067 0.217-0.156 0.297-0.263s0.139-0.228 0.172-0.357c0.033-0.129 0.039-0.264 0.019-0.396s-0.066-0.259-0.136-0.373zM9 12c0-1.384 0.411-2.738 1.18-3.889s1.862-2.048 3.141-2.578c1.279-0.53 2.687-0.668 4.044-0.398s2.605 0.937 3.584 1.916c0.979 0.979 1.646 2.226 1.916 3.584s0.131 2.765-0.398 4.044c-0.53 1.279-1.427 2.372-2.578 3.141s-2.505 1.18-3.889 1.18c-1.856-0.002-3.635-0.74-4.948-2.052s-2.050-3.092-2.052-4.948z"></path>
</symbol>
<symbol id="icon-chevron-right-new" viewBox="0 0 16 32">
<path fill="none"  stroke-linejoin="round" stroke-linecap="round" stroke-miterlimit="4" stroke-width="4" d="M14 4l-12 12 12 12"></path>
</symbol>

</defs>
</svg>
