<svg width="167" height="204" viewBox="0 0 167 204" fill="none" xmlns="http://www.w3.org/2000/svg">
<g id="Group 1966">
<ellipse id="Ellipse 452" cx="80.5532" cy="99.9717" rx="13.6402" ry="17.1501" transform="rotate(-31 80.5532 99.9717)" fill="white"/>
<ellipse id="Ellipse 453" cx="80.5522" cy="99.9712" rx="11.3825" ry="15.0884" transform="rotate(-31 80.5522 99.9712)" fill="white"/>
<g id="Group 1940">
<g id="Group 28">
<g id="Group 25">
<ellipse id="Ellipse 274" cx="0.918491" cy="1.44337" rx="0.918491" ry="1.44337" transform="matrix(0.932751 -0.365437 0.362979 0.92988 59.5342 75.4775)" fill="white"/>
<ellipse id="Ellipse 275" cx="0.918491" cy="1.44337" rx="0.918491" ry="1.44337" transform="matrix(-0.766711 0.644783 0.643369 0.763207 68.9336 69.5986)" fill="white"/>
<path id="Union" fill-rule="evenodd" clip-rule="evenodd" d="M62.5584 69.5918C61.0067 70.5396 58.4043 73.0208 60.4083 75.3635C61.7518 76.9339 61.5429 77.8718 61.3172 78.8856C61.122 79.7622 60.9142 80.6956 61.6864 82.1438C62.3877 83.4592 63.2715 84.1459 64.1535 84.8314C65.3657 85.7733 66.5746 86.7127 67.3026 89.2776C68.3089 92.8226 73.515 101.585 76.0145 105.469L81.8128 101.985L81.8127 101.985L87.5459 98.5769C85.3289 94.5253 80.2501 85.8004 77.6169 83.2224C75.7615 81.406 75.7967 79.9298 75.8317 78.4582C75.8589 77.3192 75.8859 76.1828 75.0362 74.8935C74.1279 73.5154 72.9854 73.2538 71.8852 73.0019C70.6264 72.7137 69.4229 72.4382 68.689 70.5172C67.5888 67.6373 64.1659 68.7378 62.5918 69.648L62.5584 69.5918Z" fill="white"/>
<ellipse id="Ellipse 265" cx="2.21927" cy="3.12601" rx="2.21927" ry="3.12601" transform="matrix(-0.559494 0.830293 0.829898 0.555743 62.8164 78.8296)" fill="white"/>
<ellipse id="Ellipse 278" cx="2.21927" cy="3.126" rx="2.21927" ry="3.126" transform="matrix(-1.0002 -0.0335915 -0.0369761 0.998548 75.8027 74.0195)" fill="white"/>
<path id="Vector 13" d="M83.6529 91.8264C80.5692 96.0792 74.7481 98.6664 72.1465 98.9988L72.9798 100.339C79.0669 99.9383 83.1314 95.3694 84.4775 93.1561L83.6529 91.8264Z" fill="white"/>
<path id="Vector 15" d="M84.4618 93.1071C80.8923 98.3985 75.5556 99.9597 72.955 100.323L73.6305 101.36C79.7225 100.886 84.0286 96.8332 85.3346 94.6086L84.4618 93.1071Z" fill="white"/>
<ellipse id="Ellipse 276" opacity="0.2" cx="0.411887" cy="0.64726" rx="0.411887" ry="0.64726" transform="matrix(0.994291 -0.117832 0.114734 0.992138 68.3838 70.3164)" fill="white"/>
<ellipse id="Ellipse 277" opacity="0.2" cx="0.411887" cy="0.64726" rx="0.411887" ry="0.64726" transform="matrix(0.994291 -0.117832 0.114734 0.992138 60.0928 75.4141)" fill="white"/>
<path id="Vector 23" d="M63.1385 77.8355C60.6295 74.026 64.0124 71.1301 64.0252 71.188C68.4191 69.9461 70.0849 73.525 70.2475 74.1046C70.6951 75.6996 73.7174 75.5483 73.882 77.3897C74.0467 79.2312 75.83 82.2105 76.5028 84.6286C76.9151 86.1104 76.6691 86.8872 76.3699 87.2255C76.4693 87.1677 76.431 87.1973 76.3355 87.2624C76.2547 87.344 76.1717 87.395 76.0982 87.4205C76.1867 87.3623 76.2732 87.3048 76.3355 87.2624C76.347 87.2508 76.3585 87.2385 76.3699 87.2255C76.2393 87.3016 75.8707 87.5287 75.0814 88.0249C72.8553 89.4243 70.9579 86.5537 67.002 84.3355C63.0461 82.1173 66.2746 82.5973 63.1385 77.8355Z" fill="white"/>
<path id="Vector 25" d="M74.2271 86.59C72.3258 87.507 69.366 83.8564 68.1237 81.9164C69.0897 81.0122 71.2951 79.2392 72.3886 79.3812C73.7556 79.5588 76.6037 85.4438 74.2271 86.59Z" fill="white"/>
<path id="Vector 26" d="M74.2939 85.8652C75.4655 84.9555 73.4262 82.4333 72.26 81.2859L69.8027 82.7466C70.8116 84.1652 73.1222 86.775 74.2939 85.8652Z" fill="white"/>
<path id="Vector 27" d="M73.5674 84.9611C73.718 84.6198 71.7134 82.116 70.6922 80.9068L70.1865 81.2852C71.2507 82.6527 73.4168 85.3024 73.5674 84.9611Z" fill="white"/>
<path id="Vector 24" d="M66.4863 80.8335C66.1678 77.5194 64.603 76.5075 63.8605 76.4157C64.2733 72.7887 67.3276 72.9457 68.8032 73.4776C68.868 76.8663 68.7371 74.2023 71.994 77.5596C74.5995 80.2454 73.1586 82.5414 72.1124 83.3537C70.3698 83.8945 66.8049 84.1476 66.4863 80.8335Z" fill="white"/>
<path id="Vector 28" d="M72.9251 78.7734C67.7047 76.5757 67.2732 80.7114 67.71 83.054C68.4419 83.6852 70.3625 84.6227 72.1895 83.3235C74.0164 82.0242 73.4411 79.7487 72.9251 78.7734Z" fill="white"/>
<path id="Vector 33" d="M69.4048 80.1993C69.1747 79.8845 68.6945 79.3347 68.6141 79.6542C68.5337 79.9738 69.1077 80.1508 69.4048 80.1993Z" fill="white"/>
<path id="Vector 34" d="M70.0413 79.8224C69.8213 79.5005 69.4633 78.8644 69.7915 78.8954C70.1198 78.9264 70.0948 79.5263 70.0413 79.8224Z" fill="white"/>
</g>
<g id="Group 27">
<path id="Vector 30" d="M63.2262 65.9102L65.1806 68.6159C64.5045 71.0531 61.2717 72.2282 59.7398 72.5111L57.7894 69.7248L63.2262 65.9102Z" fill="white"/>
<path id="Vector 31" d="M65.1815 68.6157C65.737 70.3746 65.3079 73.4961 59.7339 72.4863L65.1815 68.6157Z" fill="white"/>
<ellipse id="Ellipse 276_2" cx="3.32014" cy="0.572319" rx="3.32014" ry="0.572319" transform="matrix(0.823236 -0.57099 0.569259 0.819877 57.458 69.2407)" fill="white"/>
<path id="Vector" d="M60.5838 68.8642C60.6017 68.8622 60.6163 68.8598 60.6306 68.8596C60.7488 68.8554 60.8445 68.8839 60.933 68.962C60.9705 68.995 61.0046 69.033 61.0396 69.0681C61.0705 69.0992 61.1008 69.1298 61.1323 69.1605C61.1405 69.1683 61.1423 69.1731 61.1333 69.1825C61.1134 69.2017 61.1033 69.2266 61.111 69.2547C61.1174 69.2797 61.1346 69.2949 61.1579 69.3009C61.1818 69.3076 61.2037 69.3002 61.223 69.2856C61.2325 69.278 61.2357 69.2691 61.2337 69.2561C61.2201 69.1569 61.1861 69.0658 61.1344 68.9808C61.0912 68.9107 61.0356 68.8508 60.9829 68.7894C60.9531 68.7543 60.924 68.7175 60.8929 68.6834C60.8736 68.6616 60.8572 68.6396 60.8452 68.6128C60.8333 68.586 60.8273 68.5576 60.8285 68.5265C60.8583 68.5304 60.8851 68.542 60.907 68.5607C60.9273 68.5785 60.9461 68.5997 60.9633 68.6201C60.982 68.6424 60.9975 68.6673 61.0144 68.69C61.0592 68.7505 61.1033 68.8114 61.15 68.8704C61.2283 68.9681 61.3255 69.0402 61.4418 69.0844C61.4571 69.0907 61.4684 69.0867 61.4793 69.0758C61.5074 69.0488 61.5115 69.0071 61.4889 68.9786C61.4678 68.9519 61.4256 68.9467 61.3951 68.9693C61.3839 68.9773 61.3803 68.974 61.3745 68.9641C61.3435 68.9133 61.3114 68.8623 61.2799 68.8119C61.2445 68.7542 61.206 68.6991 61.1882 68.6323C61.1648 68.5442 61.1716 68.4669 61.2006 68.3799C61.203 68.3738 61.2054 68.3677 61.2087 68.3588C61.2132 68.3645 61.2162 68.3683 61.2192 68.3721C61.4133 68.6174 61.5994 68.8526 61.7934 69.0979C61.8045 69.1119 61.8045 69.1119 61.7913 69.1226C61.7417 69.1627 61.6915 69.2034 61.642 69.2436C61.6332 69.2507 61.6314 69.2563 61.6365 69.2667C61.6753 69.3456 61.6855 69.4289 61.664 69.515C61.6598 69.533 61.6587 69.5525 61.6561 69.5713C61.6018 69.5612 61.5442 69.5705 61.4898 69.5511C61.4452 69.5352 61.403 69.5143 61.367 69.4831C61.3586 69.4764 61.3528 69.477 61.3453 69.4831C61.2944 69.5243 61.2442 69.5649 61.1934 69.6061C61.1846 69.6133 61.1793 69.6144 61.1713 69.6043C60.9762 69.3577 60.7887 69.1206 60.5936 68.874C60.5913 68.8738 60.5893 68.8712 60.5838 68.8642ZM60.7283 68.9323C60.7275 68.934 60.7257 68.9355 60.7249 68.9371C60.7284 68.9416 60.7319 68.946 60.7354 68.9505C60.8292 69.069 60.9155 69.178 61.0093 69.2966C61.0248 69.3162 61.0248 69.3162 61.0449 69.3C61.0524 69.2938 61.0547 69.2889 61.0505 69.2798C61.0395 69.2502 61.0405 69.2202 61.0522 69.1921C61.057 69.1799 61.0537 69.1731 61.0455 69.1653C61.0052 69.1261 60.9638 69.0868 60.9255 69.0461C60.885 69.0041 60.8478 68.978 60.7936 68.9563C60.7718 68.947 60.7502 68.9405 60.7283 68.9323ZM61.2469 68.5151C61.2456 68.5161 61.2445 68.516 61.2432 68.517C61.2435 68.5251 61.2437 68.5333 61.2446 68.5409C61.2502 68.5987 61.2537 68.6448 61.283 68.6949C61.3206 68.7581 61.3595 68.8202 61.3977 68.8829C61.4025 68.8915 61.4084 68.895 61.4194 68.8934C61.4497 68.8886 61.4783 68.8935 61.505 68.9104C61.5173 68.9181 61.5262 68.915 61.54 68.8986C61.5485 68.8886 61.5388 68.884 61.5342 68.8783C61.439 68.7579 61.3512 68.647 61.2554 68.5259C61.253 68.5216 61.25 68.5178 61.2469 68.5151ZM61.2554 69.3447C61.2517 69.3466 61.2475 69.349 61.2421 69.3513C61.1955 69.3745 61.1492 69.3798 61.1041 69.3487C61.0977 69.3446 61.0932 69.3441 61.088 69.3493C61.0836 69.3528 61.0792 69.3564 61.0748 69.3599C61.0686 69.365 61.0681 69.3696 61.0731 69.3759C61.1107 69.4235 61.1488 69.4717 61.187 69.5187C61.1891 69.5212 61.1986 69.5229 61.2011 69.5208C61.2355 69.494 61.27 69.466 61.3034 69.4379C61.3059 69.4359 61.3074 69.4274 61.306 69.4243C61.2895 69.3982 61.2729 69.3721 61.2554 69.3447ZM61.524 69.127C61.5465 69.1503 61.5687 69.1719 61.5908 69.1946C61.5969 69.201 61.602 69.197 61.607 69.1929C61.639 69.1669 61.6699 69.1409 61.7024 69.1156C61.7124 69.1074 61.7125 69.1011 61.7044 69.0921C61.6701 69.0501 61.6372 69.0071 61.6031 68.964C61.5875 68.9444 61.5875 68.9444 61.5681 68.9602C61.5624 68.9647 61.5574 68.9688 61.561 68.9773C61.5793 69.0239 61.5684 69.066 61.5418 69.1053C61.5358 69.1133 61.5287 69.12 61.524 69.127ZM61.2495 69.0561C61.2705 69.1191 61.2906 69.1809 61.2987 69.2472C61.3287 69.2447 61.3569 69.2426 61.3853 69.2394C61.3893 69.2393 61.3946 69.2329 61.3962 69.2285C61.4045 69.2051 61.4105 69.1815 61.4188 69.1581C61.4213 69.1509 61.4201 69.1467 61.4124 69.1435C61.3586 69.1237 61.3098 69.0946 61.2619 69.0627C61.2575 69.061 61.2533 69.0582 61.2495 69.0561ZM61.4128 69.4304C61.4363 69.4654 61.523 69.5034 61.5502 69.4948C61.5504 69.4937 61.5505 69.4925 61.5505 69.4925C61.5244 69.4596 61.499 69.4261 61.4728 69.3943C61.4708 69.3917 61.4634 69.3915 61.4603 69.3929C61.4437 69.4043 61.4285 69.4177 61.4128 69.4304ZM61.604 69.4534C61.6184 69.4156 61.5961 69.3224 61.5717 69.3006C61.5579 69.3118 61.5428 69.324 61.529 69.3352C61.5208 69.3418 61.5208 69.347 61.5269 69.3546C61.5479 69.3812 61.569 69.4078 61.59 69.4345C61.5939 69.4407 61.5984 69.4464 61.604 69.4534ZM61.3951 69.3625C61.4033 69.3559 61.4126 69.3494 61.4197 69.3415C61.4222 69.3395 61.4232 69.3304 61.4211 69.329C61.3953 69.3041 61.3587 69.2943 61.3273 69.3093C61.3206 69.3126 61.3185 69.3164 61.3218 69.3232C61.3328 69.3423 61.3444 69.3609 61.356 69.3807C61.3604 69.3876 61.3661 69.3871 61.3718 69.3825C61.3788 69.3757 61.387 69.3691 61.3951 69.3625ZM61.5106 69.2689C61.5181 69.2628 61.525 69.2572 61.5326 69.2511C61.5406 69.2457 61.5425 69.2389 61.5347 69.2317C61.5203 69.2174 61.5059 69.2031 61.4908 69.1893C61.4835 69.1827 61.4783 69.1838 61.4727 69.1925C61.4544 69.2188 61.4536 69.262 61.4726 69.2873C61.4746 69.2898 61.4825 69.2907 61.4855 69.2893C61.4948 69.2828 61.5024 69.2755 61.5106 69.2689Z" fill="white"/>
<path id="Vector 32" d="M63.2262 65.9102L65.1806 68.6159C64.5045 71.0531 61.2717 72.2282 59.7398 72.5111L57.7894 69.7248C57.7894 69.7248 58.2919 69.5126 58.5779 69.3166C58.9207 69.0817 59.3576 68.5929 59.3576 68.5929L62.5582 69.9663L61.6768 66.8249C61.6768 66.8249 62.2707 66.7582 62.5873 66.5676C62.8941 66.3829 63.2262 65.9102 63.2262 65.9102Z" fill="white"/>
</g>
</g>
<ellipse id="Ellipse 468" cx="81.7747" cy="102.016" rx="6.71705" ry="1.82504" transform="matrix(0.857167 -0.516495 0.513586 0.857167 -40.7141 56.8075)" fill="white"/>
<rect id="Rectangle 5800" x="73.3984" y="102.318" width="15.0625" height="5.88068" transform="rotate(-31 73.3984 102.318)" fill="white"/>
</g>
<g id="Group 1930">
<path id="Ellipse 452_2" d="M107.192 149.797C99.1665 138.419 100.362 134.853 103.419 132.698C106.477 130.544 110.24 130.617 118.265 141.995C126.291 153.372 132.483 173.9 132.483 173.9C123.368 160.978 115.218 161.174 107.192 149.797Z" fill="#FF0000"/>
<path id="Ellipse 453_2" d="M108.299 139.616C100.273 128.239 101.468 124.672 104.526 122.518C107.584 120.363 111.346 120.437 119.372 131.814C127.398 143.191 133.589 163.719 133.589 163.719C124.475 150.798 116.324 150.993 108.299 139.616Z" fill="#FF0000"/>
<path id="Ellipse 454" d="M95.0642 144.355C87.0386 132.977 88.2337 129.411 91.2915 127.256C94.3493 125.102 98.1118 125.175 106.137 136.553C114.163 147.93 120.355 168.458 120.355 168.458C111.24 155.536 103.09 155.732 95.0642 144.355Z" fill="#FF0000"/>
</g>
<g id="Group 1929">
<rect id="Rectangle 5796" x="42.4443" y="73.5503" width="40.7711" height="79.7736" transform="rotate(-31 42.4443 73.5503)" fill="#B7B7B7"/>
<ellipse id="Ellipse 449" cx="100.964" cy="131.361" rx="20.3856" ry="8.04235" transform="rotate(-31 100.964 131.361)" fill="#B7B7B7"/>
</g>
<g id="Group 1928">
<path id="Union_2" fill-rule="evenodd" clip-rule="evenodd" d="M75.7182 49.766L40.7705 70.7646L81.8569 139.144L81.8584 139.143C84.2211 142.862 93.84 141.232 103.432 135.469C113.024 129.705 118.979 121.977 116.804 118.145L116.805 118.145L116.799 118.135C116.787 118.115 116.776 118.095 116.764 118.076C116.752 118.056 116.74 118.036 116.727 118.017L75.7182 49.766Z" fill="url(#paint0_linear_12475_1424)"/>
</g>
<path id="Rectangle 5797" d="M40.4843 70.2902C48.642 83.8667 83.637 62.8396 75.4794 49.2631C64.3248 30.6987 34.4734 21.2862 34.4734 21.2862C34.4734 21.2862 29.246 51.5869 40.4843 70.2902Z" fill="url(#paint1_linear_12475_1424)"/>
<path id="Rectangle 5798" d="M60.4092 142.538L77.6268 132.192L54.3983 93.5336C54.3983 93.5336 49.171 123.834 60.4092 142.538Z" fill="url(#paint2_linear_12475_1424)"/>
<path id="Rectangle 5799" d="M129.84 100.819L112.622 111.165L89.3938 72.506C89.3938 72.506 118.602 82.1159 129.84 100.819Z" fill="url(#paint3_linear_12475_1424)"/>
<ellipse id="Ellipse 450" cx="80.5532" cy="99.9717" rx="13.6402" ry="17.1501" transform="rotate(-31 80.5532 99.9717)" fill="#EDEDED"/>
<ellipse id="Ellipse 451" cx="80.5522" cy="99.9712" rx="11.3825" ry="15.0884" transform="rotate(-31 80.5522 99.9712)" fill="#888888"/>
<g id="Group 1933">
<g id="Group 28_2">
<g id="Group 25_2">
<ellipse id="Ellipse 274_2" cx="0.918491" cy="1.44337" rx="0.918491" ry="1.44337" transform="matrix(0.932751 -0.365437 0.362979 0.92988 59.5352 75.4771)" fill="black"/>
<ellipse id="Ellipse 275_2" cx="0.918491" cy="1.44337" rx="0.918491" ry="1.44337" transform="matrix(-0.766711 0.644783 0.643369 0.763207 68.9355 69.5981)" fill="black"/>
<path id="Union_3" fill-rule="evenodd" clip-rule="evenodd" d="M62.5594 69.5913C61.0077 70.5391 58.4053 73.0203 60.4093 75.363C61.7527 76.9334 61.5439 77.8713 61.3182 78.8851C61.123 79.7618 60.9152 80.6952 61.6873 82.1433C62.3887 83.4587 63.2724 84.1454 64.1545 84.8309C65.3666 85.7728 66.5756 86.7122 67.3036 89.2771C68.3099 92.8221 73.516 101.585 76.0155 105.468L81.8137 101.985L81.8137 101.984L87.5469 98.5764C85.3298 94.5249 80.251 85.7999 77.6179 83.222C75.7625 81.4055 75.7977 79.9293 75.8327 78.4577C75.8599 77.3187 75.8869 76.1824 75.0372 74.893C74.1289 73.5149 72.9864 73.2533 71.8862 73.0014C70.6273 72.7132 69.4239 72.4377 68.69 70.5167C67.5898 67.6368 64.1669 68.7373 62.5928 69.6475L62.5594 69.5913Z" fill="white"/>
<ellipse id="Ellipse 265_2" cx="2.21927" cy="3.12601" rx="2.21927" ry="3.12601" transform="matrix(-0.559494 0.830293 0.829898 0.555743 62.8174 78.8291)" fill="url(#paint4_radial_12475_1424)"/>
<ellipse id="Ellipse 278_2" cx="2.21927" cy="3.126" rx="2.21927" ry="3.126" transform="matrix(-1.0002 -0.0335915 -0.0369761 0.998548 75.8037 74.0195)" fill="url(#paint5_radial_12475_1424)"/>
<path id="Vector 13_2" d="M83.6539 91.8259C80.5701 96.0787 74.749 98.6659 72.1475 98.9983L72.9808 100.339C79.0678 99.9379 83.1324 95.3689 84.4785 93.1557L83.6539 91.8259Z" fill="#005BBB"/>
<path id="Vector 15_2" d="M84.4638 93.1066C80.8943 98.398 75.5576 99.9592 72.957 100.323L73.6324 101.36C79.7245 100.885 84.0305 96.8327 85.3366 94.6081L84.4638 93.1066Z" fill="#FFD500"/>
<ellipse id="Ellipse 276_3" opacity="0.2" cx="0.411887" cy="0.64726" rx="0.411887" ry="0.64726" transform="matrix(0.994291 -0.117832 0.114734 0.992138 68.3848 70.3159)" fill="white"/>
<ellipse id="Ellipse 277_2" opacity="0.2" cx="0.411887" cy="0.64726" rx="0.411887" ry="0.64726" transform="matrix(0.994291 -0.117832 0.114734 0.992138 60.0938 75.4136)" fill="white"/>
<path id="Vector 23_2" d="M63.1395 77.8355C60.6305 74.026 64.0134 71.1301 64.0261 71.188C68.4201 69.9461 70.0859 73.525 70.2485 74.1046C70.696 75.6996 73.7184 75.5483 73.883 77.3897C74.0476 79.2312 75.831 82.2105 76.5038 84.6286C76.9161 86.1104 76.6701 86.8872 76.3709 87.2255C76.4703 87.1677 76.432 87.1973 76.3364 87.2624C76.2556 87.344 76.1727 87.395 76.0992 87.4205C76.1877 87.3623 76.2742 87.3048 76.3364 87.2624C76.348 87.2508 76.3595 87.2385 76.3709 87.2255C76.2403 87.3016 75.8717 87.5287 75.0824 88.0249C72.8563 89.4243 70.9589 86.5537 67.003 84.3355C63.0471 82.1173 66.2756 82.5973 63.1395 77.8355Z" fill="#FF6B0A"/>
<path id="Vector 25_2" d="M74.2291 86.5895C72.3278 87.5065 69.3679 83.8559 68.1257 81.9159C69.0917 81.0117 71.297 79.2387 72.3906 79.3807C73.7575 79.5583 76.6057 85.4433 74.2291 86.5895Z" fill="black"/>
<path id="Vector 26_2" d="M74.2948 85.8647C75.4665 84.955 73.4271 82.4328 72.261 81.2854L69.8037 82.7461C70.8125 84.1647 73.1231 86.7745 74.2948 85.8647Z" fill="#956C7C"/>
<path id="Vector 27_2" d="M73.5684 84.9606C73.719 84.6193 71.7143 82.1155 70.6932 80.9063L70.1875 81.2847C71.2517 82.6522 73.4178 85.3019 73.5684 84.9606Z" fill="#86616F"/>
<path id="Vector 24_2" d="M66.4883 80.833C66.1697 77.519 64.605 76.507 63.8624 76.4152C64.2752 72.7883 67.3296 72.9452 68.8052 73.4771C68.87 76.8658 68.7391 74.2018 71.996 77.5591C74.6015 80.2449 73.1605 82.5409 72.1144 83.3532C70.3718 83.894 66.8069 84.1471 66.4883 80.833Z" fill="#EB6005"/>
<path id="Vector 28_2" d="M72.9261 78.7734C67.7057 76.5757 67.2742 80.7114 67.711 83.054C68.4429 83.6852 70.3635 84.6227 72.1904 83.3235C74.0174 82.0242 73.4421 79.7487 72.9261 78.7734Z" fill="#EFE5D5"/>
<path id="Vector 33_2" d="M69.4058 80.1988C69.1757 79.884 68.6955 79.3342 68.6151 79.6537C68.5346 79.9733 69.1087 80.1503 69.4058 80.1988Z" fill="#DACAB0"/>
<path id="Vector 34_2" d="M70.0423 79.8219C69.8223 79.5 69.4643 78.8639 69.7925 78.8949C70.1207 78.926 70.0958 79.5258 70.0423 79.8219Z" fill="#DACAB0"/>
</g>
</g>
<ellipse id="Ellipse 468_2" cx="81.7777" cy="102.016" rx="6.71705" ry="1.82504" transform="matrix(0.857167 -0.516495 0.513586 0.857167 -40.7134 56.8089)" fill="white"/>
<rect id="Rectangle 5800_2" x="73.4004" y="102.318" width="15.0625" height="5.88068" transform="rotate(-31 73.4004 102.318)" fill="url(#paint6_linear_12475_1424)"/>
</g>
</g>
<defs>
<linearGradient id="paint0_linear_12475_1424" x1="52.9967" y1="88.7715" x2="110.47" y2="73.0257" gradientUnits="userSpaceOnUse">
<stop stop-color="#C8C8C8"/>
<stop offset="1" stop-color="white"/>
</linearGradient>
<linearGradient id="paint1_linear_12475_1424" x1="40.3683" y1="67.753" x2="73.4777" y2="21.5036" gradientUnits="userSpaceOnUse">
<stop stop-color="#C8C8C8"/>
<stop offset="1" stop-color="white"/>
</linearGradient>
<linearGradient id="paint2_linear_12475_1424" x1="55.1647" y1="132.656" x2="75.5987" y2="111.454" gradientUnits="userSpaceOnUse">
<stop stop-color="#C8C8C8"/>
<stop offset="1" stop-color="white"/>
</linearGradient>
<linearGradient id="paint3_linear_12475_1424" x1="123.577" y1="91.5496" x2="95.2638" y2="99.6381" gradientUnits="userSpaceOnUse">
<stop stop-color="#C8C8C8"/>
<stop offset="1" stop-color="white"/>
</linearGradient>
<radialGradient id="paint4_radial_12475_1424" cx="0" cy="0" r="1" gradientUnits="userSpaceOnUse" gradientTransform="translate(2.21927 3.12601) rotate(90) scale(3.12601 2.21927)">
<stop stop-color="#FFBBBB"/>
<stop offset="1" stop-color="#FFBBBB" stop-opacity="0"/>
</radialGradient>
<radialGradient id="paint5_radial_12475_1424" cx="0" cy="0" r="1" gradientUnits="userSpaceOnUse" gradientTransform="translate(2.21927 3.126) rotate(90) scale(3.126 2.21927)">
<stop stop-color="#FFBBBB"/>
<stop offset="1" stop-color="#FFBBBB" stop-opacity="0"/>
</radialGradient>
<linearGradient id="paint6_linear_12475_1424" x1="80.9316" y1="102.318" x2="80.9316" y2="108.199" gradientUnits="userSpaceOnUse">
<stop stop-color="#888888" stop-opacity="0"/>
<stop offset="1" stop-color="#888888"/>
</linearGradient>
</defs>
</svg>
