<svg aria-hidden="true" style="position: absolute; width: 0; height: 0; overflow: hidden;" version="1.1" xmlns="http://www.w3.org/2000/svg" xmlns:xlink="http://www.w3.org/1999/xlink">
<defs>
<symbol id="icon-menu" viewBox="0 0 32 32">
<path stroke-linejoin="round" stroke-linecap="round" stroke-miterlimit="4" stroke-width="2.6667" d="M1.375 16h29.25"></path>
<path stroke-linejoin="round" stroke-linecap="round" stroke-miterlimit="4" stroke-width="2.6667" d="M1.375 6.25h29.25"></path>
<path stroke-linejoin="round" stroke-linecap="round" stroke-miterlimit="4" stroke-width="2.6667" d="M1.375 25.75h29.25"></path>
</symbol>
<symbol id="icon-x-close" viewBox="0 0 32 32">
<path stroke-linejoin="round" stroke-linecap="round" stroke-miterlimit="4" stroke-width="3.2" d="M30.25 1.75l-28.5 28.5"></path>
<path stroke-linejoin="round" stroke-linecap="round" stroke-miterlimit="4" stroke-width="3.2" d="M1.75 1.75l28.5 28.5"></path>
</symbol>
<symbol id="icon-log-out" viewBox="0 0 32 32">
<path stroke-linejoin="round" stroke-linecap="round" stroke-miterlimit="4" stroke-width="3.5556" d="M22.259 23.824l7.824-7.824M30.083 16l-7.824-7.824M30.083 16h-18.778M11.306 1.917h-1.878c-2.629 0-3.944 0-4.948 0.512-0.883 0.45-1.601 1.168-2.051 2.051-0.512 1.004-0.512 2.319-0.512 4.948v13.144c0 2.629 0 3.944 0.512 4.948 0.45 0.883 1.168 1.601 2.051 2.051 1.004 0.512 2.319 0.512 4.948 0.512h1.878"></path>
</symbol>
<symbol id="icon-trash" viewBox="0 0 32 32">
<path stroke-linejoin="round" stroke-linecap="round" stroke-miterlimit="4" stroke-width="2.6" d="M11.167 1.5h9.667"></path>
<path stroke-linejoin="round" stroke-linecap="round" stroke-miterlimit="4" stroke-width="2.6" d="M1.5 6.333h29"></path>
<path stroke-linejoin="round" stroke-linecap="round" stroke-miterlimit="4" stroke-width="2.6" d="M4.722 6.333l0.968 14.522c0.18 2.696 0.27 4.044 0.71 5.127 0.8 1.966 2.421 3.483 4.437 4.151 1.11 0.368 2.461 0.368 5.163 0.368v0c2.702 0 4.053 0 5.163-0.368 2.015-0.667 3.636-2.184 4.437-4.151 0.441-1.083 0.53-2.431 0.71-5.127l0.968-14.522"></path>
</symbol>
<symbol id="icon-pencil" viewBox="0 0 32 32">
<path stroke-linejoin="round" stroke-linecap="round" stroke-miterlimit="4" stroke-width="2.7429" d="M1.858 30.141l8.26-3.177c0.528-0.203 0.793-0.305 1.040-0.437 0.22-0.118 0.429-0.254 0.626-0.407 0.222-0.172 0.422-0.372 0.822-0.773l16.79-16.79c1.644-1.644 1.644-4.31 0-5.954s-4.31-1.644-5.954 0l-16.79 16.79c-0.4 0.4-0.6 0.6-0.772 0.822-0.153 0.197-0.289 0.406-0.407 0.626-0.133 0.247-0.234 0.511-0.437 1.040l-3.177 8.26zM1.858 30.141l3.064-7.965c0.219-0.57 0.329-0.855 0.517-0.986 0.164-0.114 0.368-0.157 0.564-0.12 0.225 0.043 0.441 0.259 0.872 0.691l3.363 3.363c0.432 0.432 0.648 0.648 0.691 0.872 0.038 0.196-0.006 0.4-0.12 0.564-0.131 0.188-0.416 0.297-0.986 0.517l-7.965 3.064z"></path>
</symbol>
<symbol id="icon-arrow-circle-broken" viewBox="0 0 32 32">
<path stroke-linejoin="round" stroke-linecap="round" stroke-miterlimit="4" stroke-width="2.7429" d="M3.368 8.708c2.522-4.359 7.235-7.292 12.632-7.292 8.054 0 14.583 6.529 14.583 14.583s-6.529 14.583-14.583 14.583c-5.398 0-10.111-2.933-12.632-7.292"></path>
<path stroke-linejoin="round" stroke-linecap="round" stroke-miterlimit="4" stroke-width="2.7429" d="M16 21.833l5.833-5.833-5.833-5.833"></path>
<path stroke-linejoin="round" stroke-linecap="round" stroke-miterlimit="4" stroke-width="2.7429" d="M1.417 16h20.417"></path>
</symbol>
<symbol id="icon-plus-circle" viewBox="0 0 32 32">
<path stroke-linejoin="round" stroke-linecap="round" stroke-miterlimit="4" stroke-width="2.9091" d="M16 10.182v11.636M10.182 16h11.636M30.545 16c0 8.033-6.512 14.545-14.545 14.545s-14.545-6.512-14.545-14.545c0-8.033 6.512-14.545 14.545-14.545s14.545 6.512 14.545 14.545z"></path>
</symbol>
<symbol id="icon-pluss" viewBox="0 0 32 32">
<path stroke-linejoin="round" stroke-linecap="round" stroke-miterlimit="4" stroke-width="4" d="M16 2v28M2 16h28"></path>
</symbol>
<symbol id="icon-calendar" viewBox="0 0 29 32">
<path stroke-linejoin="round" stroke-linecap="round" stroke-miterlimit="4" stroke-width="2.9091" d="M27.636 13.091h-26.182M27.636 16.727v-5.382c0-2.444 0-3.666-0.476-4.599-0.418-0.821-1.086-1.489-1.907-1.907-0.934-0.476-2.155-0.476-4.599-0.476h-12.218c-2.444 0-3.666 0-4.599 0.476-0.821 0.418-1.489 1.086-1.907 1.907-0.476 0.933-0.476 2.155-0.476 4.599v12.218c0 2.444 0 3.666 0.476 4.599 0.418 0.821 1.086 1.489 1.907 1.907 0.933 0.476 2.155 0.476 4.599 0.476h6.109M20.364 1.455v5.818M8.727 1.455v5.818M18.182 26.182l2.909 2.909 6.545-6.545"></path>
</symbol>
<symbol id="icon-sun" viewBox="0 0 32 32">
<path d="M7.995 16c0 4.414 3.591 8.005 8.005 8.005s8.005-3.591 8.005-8.005c0-4.414-3.591-8.005-8.005-8.005s-8.005 3.591-8.005 8.005zM16 11.192c2.651 0 4.808 2.157 4.808 4.808s-2.157 4.808-4.808 4.808c-2.651 0-4.808-2.157-4.808-4.808s2.157-4.808 4.808-4.808zM14.398 27.192h3.198v4.796h-3.198v-4.796zM14.398 0.012h3.198v4.796h-3.198v-4.796zM0.009 14.401h4.796v3.198h-4.796v-3.198zM27.188 14.401h4.796v3.198h-4.796v-3.198zM3.56 26.173l3.389-3.393 2.262 2.261-3.389 3.393-2.262-2.261zM22.779 6.957l3.393-3.393 2.261 2.261-3.393 3.393-2.261-2.261zM6.954 9.22l-3.393-3.393 2.262-2.261 3.389 3.393-2.259 2.261zM28.432 26.175l-2.261 2.261-3.393-3.393 2.261-2.261 3.393 3.393z"></path>
</symbol>
<symbol id="icon-moon" viewBox="0 0 32 32">
<path d="M29.942 17.772c-1.088 0.289-2.209 0.435-3.335 0.435-3.428 0-6.647-1.333-9.065-3.751-1.588-1.597-2.729-3.582-3.311-5.758s-0.582-4.466-0.003-6.642c0.072-0.272 0.072-0.558-0.001-0.83s-0.217-0.52-0.416-0.719c-0.199-0.199-0.447-0.342-0.719-0.415s-0.558-0.073-0.83 0c-2.725 0.726-5.21 2.156-7.208 4.146-6.259 6.259-6.259 16.447 0 22.709 1.488 1.496 3.257 2.682 5.206 3.489s4.039 1.221 6.149 1.215c2.109 0.006 4.199-0.407 6.147-1.214s3.718-1.993 5.205-3.489c1.992-1.998 3.422-4.485 4.147-7.211 0.072-0.272 0.072-0.558-0.002-0.83s-0.216-0.519-0.415-0.718c-0.199-0.199-0.447-0.342-0.718-0.415s-0.558-0.074-0.83-0.002v0zM25.492 24.678c-1.19 1.196-2.605 2.145-4.164 2.791s-3.23 0.976-4.918 0.971c-1.688 0.004-3.36-0.326-4.919-0.972s-2.975-1.595-4.166-2.791c-5.006-5.008-5.006-13.158 0-18.166 0.967-0.966 2.084-1.77 3.308-2.381-0.179 2.311 0.143 4.633 0.944 6.807s2.062 4.151 3.697 5.794c1.639 1.64 3.615 2.904 5.79 3.706s4.499 1.121 6.811 0.936c-0.614 1.221-1.418 2.337-2.383 3.306v0z"></path>
</symbol>
<symbol id="icon-chevron-right" viewBox="0 0 16 32">
<path stroke-linejoin="round" stroke-linecap="round" stroke-miterlimit="4" stroke-width="4" d="M2 28l12-12-12-12"></path>
</symbol>
<symbol id="icon-chevron-left" viewBox="0 0 16 32">
<path stroke-linejoin="round" stroke-linecap="round" stroke-miterlimit="4" stroke-width="4" d="M14 28l-12-12 12-12"></path>
</symbol>
<symbol id="icon-user" viewBox="0 0 33 32">
<path d="M32.501 29.55c-2.381-4.117-6.050-7.068-10.333-8.468 2.118-1.261 3.764-3.182 4.684-5.469s1.065-4.813 0.411-7.189c-0.654-2.377-2.070-4.473-4.031-5.967s-4.358-2.303-6.823-2.303-4.862 0.809-6.823 2.303c-1.961 1.494-3.377 3.591-4.031 5.967s-0.51 4.903 0.411 7.189c0.92 2.287 2.566 4.208 4.684 5.469-4.282 1.398-7.952 4.349-10.333 8.468-0.087 0.142-0.145 0.301-0.17 0.466s-0.017 0.334 0.024 0.495 0.114 0.314 0.215 0.447c0.101 0.133 0.227 0.245 0.372 0.328s0.305 0.137 0.47 0.158c0.166 0.021 0.334 0.008 0.495-0.037s0.311-0.122 0.441-0.227 0.239-0.234 0.319-0.38c2.946-5.091 8.152-8.13 13.925-8.13s10.98 3.039 13.925 8.13c0.080 0.147 0.188 0.276 0.319 0.38s0.281 0.181 0.441 0.227c0.161 0.045 0.329 0.058 0.495 0.037s0.326-0.074 0.47-0.158c0.145-0.084 0.271-0.195 0.372-0.328s0.174-0.285 0.215-0.447c0.041-0.162 0.049-0.33 0.024-0.495s-0.083-0.324-0.17-0.466zM7.655 11.414c0-1.732 0.513-3.424 1.476-4.864s2.329-2.562 3.929-3.225c1.6-0.663 3.36-0.836 5.059-0.498s3.258 1.172 4.483 2.396c1.224 1.224 2.058 2.784 2.396 4.483s0.164 3.459-0.498 5.059c-0.663 1.6-1.785 2.967-3.225 3.929s-3.133 1.476-4.864 1.476c-2.321-0.003-4.547-0.926-6.188-2.567s-2.565-3.867-2.567-6.188z"></path>
</symbol>
<symbol id="icon-log-in" viewBox="0 0 32 32">
<path stroke-linejoin="round" stroke-linecap="round" stroke-miterlimit="4" stroke-width="3.5556" d="M20.694 1.917h1.878c2.629 0 3.944 0 4.948 0.512 0.883 0.45 1.601 1.168 2.051 2.051 0.512 1.004 0.512 2.319 0.512 4.948v13.144c0 2.629 0 3.944-0.512 4.948-0.45 0.883-1.168 1.601-2.051 2.051-1.004 0.512-2.319 0.512-4.948 0.512h-1.878M12.87 8.176l7.824 7.824M20.694 16l-7.824 7.824M20.694 16h-18.778"></path>
</symbol>
<symbol id="icon-user-account" viewBox="0 0 32 32">
<path stroke-linejoin="round" stroke-linecap="round" stroke-miterlimit="4" stroke-width="2.4" d="M21.844 24.767l2.922 2.922 5.844-5.844"></path>
<path stroke-linejoin="round" stroke-linecap="round" stroke-miterlimit="4" stroke-width="2.4" d="M16 21.114h-6.575c-0.95 0-1.425 0-1.824 0.046-3.238 0.373-5.793 2.927-6.166 6.166-0.046 0.399-0.046 0.874-0.046 1.824v0"></path>
<path stroke-linejoin="round" stroke-linecap="round" stroke-miterlimit="4" stroke-width="2.4" d="M13.078 16c3.631 0 6.575-2.944 6.575-6.575s-2.944-6.575-6.575-6.575c-3.631 0-6.575 2.944-6.575 6.575s2.944 6.575 6.575 6.575z"></path>
</symbol>
<symbol id="icon-add-button-round" viewBox="0 0 24 24" fill="none">
<path d="M12 8V16M8 12H16M22 12C22 17.5228 17.5228 22 12 22C6.47715 22 2 17.5228 2 12C2 6.47715 6.47715 2 12 2C17.5228 2 22 6.47715 22 12Z"  stroke-width="2" stroke-linecap="round" stroke-linejoin="round"/>
</symbol>

  <symbol id="icon-round-arrow" width="16" height="16" viewBox="0 0 16 16" fill="none" xmlns="http://www.w3.org/2000/svg">
<g clip-path="url(#clip0_362_1001)">
<path d="M2.22534 4.66665C3.37804 2.67398 5.53252 1.33331 8.00013 1.33331C11.682 1.33331 14.6668 4.31808 14.6668 7.99998C14.6668 11.6819 11.682 14.6666 8.00013 14.6666C5.53252 14.6666 3.37804 13.326 2.22534 11.3333"  stroke-width="1.3" stroke-linecap="round" stroke-linejoin="round"/>
<path d="M8 10.6666L10.6667 7.99998L8 5.33331"  stroke-width="1.3" stroke-linecap="round" stroke-linejoin="round"/>
<path d="M1.33325 8L10.6666 8"  stroke-width="1.3" stroke-linecap="round" stroke-linejoin="round"/>
</g>
<defs>
<clipPath id="clip0_362_1001">
<rect width="16" height="16" fill="none"/>
</clipPath>
</defs>
</symbol>
<symbol id="icon-plus-add-button" viewBox="0 0 24 24" xmlns="http://www.w3.org/2000/svg">
    <path d="M12 5V19M5 12H19" />
  </symbol>
  <symbol id="icon-chevron-left-new" viewBox="0 0 16 32">
<path fill="none"   stroke-linejoin="round" stroke-linecap="round" stroke-miterlimit="4" stroke-width="4" d="M2 28l12-12-12-12"></path>
</symbol>
<symbol id="icon-chevron-right-new" viewBox="0 0 16 32">
<path fill="none"  stroke-linejoin="round" stroke-linecap="round" stroke-miterlimit="4" stroke-width="4" d="M14 4l-12 12 12 12"></path>
</symbol>
<symbol id="icon-arrow-left" viewBox="0 0 33 32">
<path d="M7.966 17.067l-1.203-0.818 22.877-0.001v-0.64l-22.733 0.001 1.133-0.651-0.319-0.555-2.608 1.498 2.493 1.695 0.36-0.529z"></path>
</symbol>
<symbol id="icon-arrow-right" viewBox="0 0 33 32">
<path d="M21.936 14.79l1.203 0.818-22.877 0.001v0.64l22.733-0.001-1.133 0.651 0.319 0.555 2.608-1.498-2.493-1.695-0.36 0.529z"></path>
</symbol>
<symbol id="icon-ph-user"  viewBox="0 0 32 32">
<path fill="#3e85f3" style="fill: var(--color1, #3e85f3)" opacity="0.18" d="M28.865 26.5c-1.904-3.291-4.837-5.651-8.261-6.77 1.694-1.008 3.009-2.544 3.745-4.373s0.851-3.848 0.329-5.748c-0.523-1.9-1.655-3.576-3.223-4.771s-3.484-1.842-5.455-1.842-3.887 0.647-5.455 1.842c-1.568 1.195-2.7 2.871-3.223 4.771s-0.407 3.92 0.329 5.748c0.736 1.828 2.052 3.365 3.745 4.373-3.424 1.117-6.357 3.477-8.261 6.77-0.070 0.114-0.116 0.24-0.136 0.373s-0.014 0.267 0.019 0.396 0.091 0.251 0.172 0.357c0.081 0.107 0.182 0.196 0.297 0.263s0.243 0.11 0.376 0.126c0.132 0.017 0.267 0.006 0.396-0.030s0.248-0.098 0.353-0.181 0.191-0.187 0.255-0.304c2.355-4.070 6.517-6.5 11.134-6.5s8.779 2.43 11.134 6.5c0.064 0.117 0.15 0.221 0.255 0.304s0.224 0.145 0.353 0.181c0.128 0.036 0.263 0.046 0.395 0.030s0.26-0.060 0.376-0.126c0.116-0.067 0.217-0.156 0.297-0.263s0.139-0.228 0.172-0.357c0.033-0.129 0.039-0.264 0.019-0.396s-0.066-0.259-0.136-0.373zM9 12c0-1.384 0.411-2.738 1.18-3.889s1.862-2.048 3.141-2.578c1.279-0.53 2.687-0.668 4.044-0.398s2.605 0.937 3.584 1.916c0.979 0.979 1.646 2.226 1.916 3.584s0.131 2.765-0.398 4.044c-0.53 1.279-1.427 2.372-2.578 3.141s-2.505 1.18-3.889 1.18c-1.856-0.002-3.635-0.74-4.948-2.052s-2.050-3.092-2.052-4.948z"></path>
</symbol>
</defs>
</svg>
